<svg width="874" height="141" xmlns="http://www.w3.org/2000/svg"><g fill="none" fill-rule="evenodd"><path d="M638.423 0L583.12 139H93V0h545.423zm22.063 0H874v139H605.315l55.17-139z" fill="#353F41"/><path d="M722.624 72.136c0 24.64-10.64 40.768-31.024 40.768s-31.024-15.568-31.024-40.768c0-24.64 10.64-40.768 31.024-40.768s31.024 15.568 31.024 40.768zm-18.816 0c0-19.04-3.472-27.328-12.208-27.328s-12.208 8.288-12.208 27.328 3.584 27.328 12.208 27.328c8.96 0 12.208-8.512 12.208-27.328zm85.904-13.44c0 18.032-12.432 26.432-30.688 26.432h-8.512V111h-18.368V33.384h24.416c21.168 0 33.152 8.288 33.152 25.312zm-18.816 0c0-8.288-4.704-12.208-14-12.208h-6.384v25.424h7.28c8.176 0 13.104-4.032 13.104-13.216zm82.32 29.568c0 14.56-11.76 24.64-31.584 24.64-14.672 0-24.192-4.816-30.688-11.2L800.24 91.4c5.712 5.04 12.656 7.84 20.944 7.84 7.728 0 12.88-3.472 12.88-9.52 0-5.6-3.248-8.288-14-11.536-18.256-5.6-25.088-12.432-25.088-24.192 0-14.336 13.104-22.624 29.232-22.624 11.872 0 21.056 3.696 27.776 10.08l-8.624 9.968c-5.264-4.368-11.536-6.496-17.808-6.496-6.944 0-11.536 2.576-11.536 7.616 0 4.928 3.472 6.944 15.792 10.752 14.784 4.48 23.408 10.752 23.408 24.976z" fill="#F0F0F0" fill-rule="nonzero"/><path fill="#5F9F4C" d="M92 0h90v139H92z"/><path d="M45.4 92.3H32.94l-5.04 21.56H12.92l5.04-21.56H7.6l3.08-13.58h10.5l3.5-14.84H14.6l3.08-13.58H27.9l4.9-20.16h14.84L42.88 50.3h12.46l4.9-20.16h14.84L70.32 50.3H80.4l-3.5 13.58h-9.8l-3.5 14.84h9.66L69.9 92.3h-9.52l-5.04 21.56H40.36L45.4 92.3zm-9.24-13.58h12.46l3.5-14.84H39.66l-3.5 14.84z" fill="#353F41" fill-rule="nonzero"/><path d="M198.416 110V32.384h18.368V95.44h33.6L248.592 110h-50.176zM300 93.2h-22.736l-4.032 16.8h-19.264l23.744-77.616H300L323.744 110h-19.712L300 93.2zm-19.824-13.216h16.8l-8.4-34.384-8.4 34.384zm77.02-49.616c11.2 0 18.368 3.136 24.864 8.512l-8.96 10.864c-4.256-3.472-9.408-5.712-15.456-5.712-9.856 0-17.696 7.952-17.696 26.992 0 18.704 7.392 26.656 18.032 26.656 7.728 0 12.432-3.472 16.8-6.944l8.288 10.64c-5.712 5.824-14.112 10.528-26.096 10.528-21.056 0-36.064-14.224-36.064-40.88 0-25.984 15.792-40.656 36.288-40.656zM409.276 110h-18.368V32.384h18.368V110zm.56-41.44l21.168-36.176h19.264l-21.952 34.832L452.396 110h-21.168l-21.392-41.44zM510.3 32.384v13.44h-16.016v50.624H510.3V110h-50.4V96.448h16.016V45.824H459.9v-13.44h50.4zm28.084 13.104v18.704h26.88V76.96h-26.88v19.824h32.368V110h-50.736V32.384h50.736l-1.904 13.104h-30.464zM171.952 87.264c0 17.92-15.12 22.736-31.92 22.736h-25.76V32.384h24.64c15.904 0 29.68 4.704 29.68 19.824 0 9.296-6.608 14.784-14.224 16.688 8.288 1.344 17.584 5.936 17.584 18.368zm-21.84-33.152c0-6.16-3.696-8.736-11.872-8.736h-5.6v18.032h6.272c7.84 0 11.2-2.8 11.2-9.296zm2.912 32.368c0-8.064-5.04-10.752-12.88-10.752h-7.504V96.56h6.72c7.28 0 13.664-1.568 13.664-10.08z" fill="#F0F0F0" fill-rule="nonzero"/></g></svg>