<svg xmlns="http://www.w3.org/2000/svg" width="372.609" height="81.617" viewBox="0 0 349.32076 76.51595"><g fill-rule="evenodd"><path d="M75.712 38.127a37.856 38.127 0 0 1-37.856 38.126A37.856 38.127 0 0 1 0 38.127 37.856 38.127 0 0 1 37.856 0a37.856 38.127 0 0 1 37.856 38.127z" fill="#00cf35"/><path d="M58.37 38.127a20.514 20.66 0 0 1-20.514 20.66 20.514 20.66 0 0 1-20.514-20.66 20.514 20.66 0 0 1 20.514-20.661 20.514 20.66 0 0 1 20.515 20.66z" fill="#0f0"/></g><g fill="#555"><path d="M87.22 17.072h11.689q3.75 0 6.591.586 2.872.557 4.776 1.846 1.933 1.26 2.9 3.34.967 2.05.967 5.068 0 1.816-.586 3.398-.557 1.582-1.64 2.784-1.084 1.2-2.696 2.021-1.582.791-3.603 1.055v.293q2.021.351 3.779 1.025 1.787.645 3.105 1.817 1.319 1.142 2.08 2.9.762 1.758.762 4.277 0 2.93-.967 5.244-.937 2.286-2.753 3.897-1.788 1.582-4.366 2.432-2.578.85-5.83.85H87.22V17.071zm5.448 18.164h7.149q2.46 0 4.13-.44 1.67-.439 2.696-1.288 1.025-.88 1.465-2.168.469-1.319.469-3.047 0-3.516-2.256-5.04-2.256-1.523-7.12-1.523h-6.533v13.506zm0 4.57v15.47h7.793q2.579 0 4.307-.587 1.758-.586 2.813-1.64 1.084-1.055 1.552-2.52.47-1.494.47-3.281 0-1.64-.499-3.018-.469-1.377-1.582-2.343-1.084-.997-2.9-1.524-1.817-.556-4.512-.556h-7.442z"/><path d="M124.084 59.904h-5.332V14.318h5.332v45.586zm24.631 0l-1.084-4.453h-.235q-.967 1.318-1.933 2.285-.967.938-2.11 1.553-1.142.615-2.549.908-1.406.293-3.252.293-2.021 0-3.72-.586-1.7-.556-2.96-1.728-1.23-1.202-1.933-2.989-.703-1.816-.703-4.277 0-4.805 3.37-7.383 3.398-2.578 10.312-2.812l5.39-.205v-2.022q0-1.963-.44-3.281-.41-1.318-1.23-2.11-.79-.82-1.992-1.171-1.172-.352-2.695-.352-2.432 0-4.541.703-2.08.703-4.014 1.7l-1.875-4.014q2.168-1.172 4.834-1.992 2.666-.82 5.596-.82 2.988 0 5.156.614 2.197.586 3.604 1.905 1.435 1.289 2.138 3.31.703 2.022.703 4.893v22.031h-3.837zm-9.786-3.72q1.788 0 3.31-.557 1.524-.557 2.638-1.67 1.113-1.143 1.728-2.842.645-1.728.645-4.043v-2.9l-4.19.205q-2.636.117-4.424.586-1.787.469-2.87 1.318-1.055.82-1.524 2.022-.469 1.171-.469 2.666 0 2.695 1.406 3.955 1.436 1.26 3.75 1.26zm32.101 4.306q-2.959 0-5.537-.908-2.578-.938-4.482-2.93-1.905-2.021-2.989-5.127-1.084-3.134-1.084-7.529 0-4.6 1.114-7.793 1.113-3.223 3.047-5.215 1.962-2.021 4.57-2.93 2.607-.908 5.596-.908 2.285 0 4.453.498 2.197.498 3.662 1.23l-1.582 4.513q-.674-.293-1.494-.557-.82-.293-1.7-.498-.879-.235-1.728-.352-.85-.146-1.611-.146-4.6 0-6.71 2.959-2.109 2.93-2.109 9.14 0 6.182 2.11 9.053 2.138 2.842 6.474 2.842 2.373 0 4.278-.527 1.933-.557 3.515-1.29v4.747q-1.582.85-3.398 1.289-1.787.44-4.395.44zm16.69-17.197l3.956-4.98 8.584-10.577h6.182l-11.749 13.916 12.54 18.252h-6.124l-9.843-14.765-3.194 2.402v12.363H182.8V14.318h5.273v20.918l-.468 8.057h.117zm26.477 16.611h-5.332V27.736h5.332v32.168zm-5.743-40.869q0-1.758.88-2.549.908-.79 2.226-.79.644 0 1.201.204.586.176.996.586.44.41.674 1.055.264.615.264 1.494 0 1.7-.938 2.549-.908.82-2.197.82-1.318 0-2.227-.82-.879-.82-.879-2.549zm24.953 41.455q-3.223 0-5.889-1.084-2.666-1.084-4.6-3.164-1.904-2.08-2.959-5.156-1.054-3.076-1.054-7.031 0-3.985.967-7.12.966-3.134 2.724-5.302 1.758-2.198 4.19-3.34 2.46-1.143 5.42-1.143 2.9 0 5.214 1.055 2.315 1.025 3.926 2.93 1.612 1.875 2.461 4.54.879 2.637.879 5.86v3.31h-20.273q.146 5.655 2.373 8.32 2.256 2.667 6.68 2.667 1.493 0 2.753-.147 1.29-.146 2.461-.41 1.201-.293 2.315-.703 1.113-.44 2.255-.967v4.746q-1.171.557-2.314.967-1.113.41-2.314.674-1.172.264-2.461.38-1.26.118-2.754.118zm-1.319-28.916q-3.34 0-5.302 2.285-1.934 2.285-2.256 6.65h14.414q0-1.992-.41-3.632-.381-1.67-1.23-2.842-.821-1.172-2.11-1.816-1.29-.645-3.106-.645z"/></g><path d="M117.572 76.362v-5.46H82.359v5.46h35.213z" fill="#00cf35"/><g fill="#333"><path d="M287.86 38.75q0 5.21-1.234 9.495-1.202 4.285-3.7 7.338-2.496 3.052-6.32 4.717-3.791 1.664-8.97 1.664-5.18 0-9.003-1.664-3.792-1.665-6.29-4.717-2.466-3.053-3.699-7.338-1.202-4.316-1.202-9.557 0-5.241 1.202-9.496 1.233-4.285 3.73-7.306 2.498-3.022 6.29-4.656 3.823-1.664 9.033-1.664 5.18 0 8.971 1.664 3.792 1.634 6.259 4.686 2.497 3.022 3.7 7.307 1.233 4.255 1.233 9.527zm-30.584 0q0 3.545.617 6.381.617 2.806 1.88 4.779 1.296 1.942 3.238 2.99 1.942 1.049 4.624 1.049 2.744 0 4.686-1.049 1.974-1.048 3.207-2.99 1.264-1.973 1.85-4.779.616-2.836.616-6.381 0-3.546-.617-6.351-.585-2.837-1.85-4.81-1.232-1.973-3.175-3.021-1.942-1.048-4.655-1.048-2.682 0-4.655 1.048-1.973 1.048-3.268 3.021-1.264 1.973-1.88 4.81-.618 2.805-.618 6.35z"/><path d="M309.802 61.964q-1.696 0-3.053-.37-1.325-.37-2.373-.986-1.049-.617-1.85-1.388-.802-.801-1.45-1.664h-.492q.123 1.079.246 2.034.093.802.154 1.665.093.833.093 1.295v13.966h-9.403V26.88h7.646l1.325 4.47h.432q.647-1.048 1.48-1.973.832-.925 1.911-1.603 1.11-.709 2.497-1.11 1.388-.431 3.083-.431 2.682 0 4.871 1.14 2.19 1.141 3.762 3.392 1.572 2.25 2.435 5.58t.863 7.707q0 4.409-.894 7.77-.894 3.329-2.528 5.61-1.603 2.25-3.853 3.392-2.22 1.14-4.902 1.14zm-2.93-28.209q-1.572 0-2.681.586-1.08.555-1.758 1.696-.678 1.14-.986 2.898-.309 1.726-.37 4.038v1.018q0 2.497.277 4.44.309 1.941.987 3.267.678 1.295 1.788 1.973 1.14.678 2.805.678 2.806 0 4.1-2.651 1.327-2.682 1.327-7.77 0-5.086-1.326-7.614-1.295-2.559-4.162-2.559zm42.448 17.357q0 2.713-.986 4.748t-2.805 3.391q-1.82 1.357-4.409 2.035-2.59.678-5.796.678-1.696 0-3.145-.123-1.449-.093-2.743-.34-1.295-.246-2.498-.616-1.202-.37-2.435-.925v-7.769q1.295.648 2.713 1.172 1.449.524 2.867.925 1.418.37 2.744.585 1.356.216 2.497.216 1.264 0 2.158-.216.894-.246 1.45-.647.585-.432.832-.986.277-.586.277-1.234 0-.647-.216-1.14-.185-.524-.894-1.08-.709-.585-2.096-1.294-1.357-.74-3.669-1.788-2.25-1.018-3.915-2.004-1.634-1.018-2.713-2.25-1.049-1.234-1.573-2.806-.524-1.604-.524-3.792 0-2.405.925-4.193.925-1.82 2.62-3.022 1.696-1.202 4.07-1.788 2.405-.616 5.334-.616 3.083 0 5.857.709 2.775.709 5.704 2.127l-2.837 6.66q-2.343-1.11-4.47-1.82-2.127-.709-4.254-.709-1.912 0-2.775.678-.832.679-.832 1.85 0 .617.215 1.11.216.463.864.987.647.493 1.819 1.11 1.171.585 3.052 1.449 2.189.955 3.946 1.911 1.757.925 3.021 2.127 1.264 1.203 1.942 2.806.679 1.603.679 3.884z"/></g></svg>
